<svg width="89" height="39" viewBox="0 0 89 39" fill="none" xmlns="http://www.w3.org/2000/svg">
<path d="M26.9933 21.1476C26.6119 21.1809 26.2631 21.1605 25.9469 21.0862C25.6309 21.0158 25.3539 20.8969 25.1157 20.7295C24.8737 20.5625 24.6811 20.3558 24.538 20.1096C24.3988 19.8629 24.3156 19.584 24.2883 19.2727C24.2655 19.0119 24.2849 18.7632 24.3466 18.5265C24.4118 18.2855 24.5127 18.0728 24.6495 17.8883C24.7863 17.7038 24.9518 17.556 25.146 17.4449C25.3398 17.3299 25.5496 17.2625 25.7753 17.2428C26.0555 17.2183 26.297 17.2677 26.5 17.3911C26.7029 17.5145 26.8384 17.6968 26.9066 17.9378C26.4902 17.9743 26.1691 18.1141 25.9434 18.3574C25.8358 18.4726 25.7556 18.6091 25.7027 18.7666C25.6538 18.9238 25.6373 19.0939 25.6533 19.2768C25.6839 19.627 25.8094 19.8964 26.0298 20.0849C26.2538 20.2692 26.5389 20.3462 26.8852 20.3159C27.0915 20.2979 27.2809 20.2441 27.4534 20.1545C27.6256 20.061 27.7721 19.9423 27.8928 19.7984C28.0135 19.6545 28.1009 19.4881 28.155 19.2991C28.2126 19.1058 28.2322 18.9041 28.2138 18.694C28.1797 18.3048 28.012 17.9117 27.7106 17.5146C27.5913 17.3603 27.4606 17.211 27.3185 17.0666C27.1801 16.9179 26.9866 16.7231 26.738 16.4821C26.5153 16.2664 26.3283 16.0788 26.1771 15.9195C26.0259 15.7602 25.888 15.5958 25.7634 15.4263C25.461 15.0176 25.2916 14.605 25.2552 14.1886C25.2279 13.8773 25.2689 13.5835 25.378 13.3073C25.4869 13.0273 25.6552 12.7773 25.883 12.5574C26.1108 12.3374 26.3833 12.1587 26.7007 12.0212C27.018 11.8836 27.3654 11.7983 27.7429 11.7653C28.385 11.7091 28.9138 11.8158 29.3295 12.0852C29.5293 12.2168 29.6868 12.3814 29.8021 12.5791C29.9213 12.7765 29.992 13.0017 30.0141 13.2546C30.0431 13.5854 29.9831 13.8632 29.8341 14.088C29.7652 14.1959 29.6747 14.2823 29.5627 14.347C29.4546 14.4113 29.3364 14.4491 29.208 14.4603C28.9083 14.4866 28.6542 14.3833 28.4456 14.1506C28.5879 14.0284 28.694 13.874 28.7639 13.6875C28.8374 13.4968 28.8651 13.2983 28.8471 13.0921C28.8246 12.8352 28.731 12.6395 28.5663 12.5049C28.4013 12.3664 28.1865 12.3088 27.9219 12.3319C27.7623 12.3459 27.617 12.388 27.4859 12.4583C27.3587 12.5282 27.2532 12.6218 27.1693 12.7389C27.0816 12.8564 27.0169 12.9914 26.9754 13.1441C26.9377 13.2964 26.9265 13.4601 26.9419 13.6352C26.9637 13.8842 27.043 14.1184 27.1798 14.3378C27.3166 14.5572 27.5049 14.7819 27.7446 15.0119C27.9593 15.2244 28.1893 15.4337 28.4347 15.6396C29.0077 16.1385 29.4258 16.6371 29.689 17.1356C29.8444 17.4318 29.9382 17.7647 29.9705 18.1344C30.0046 18.5236 29.9565 18.8924 29.8262 19.2411C29.6956 19.5858 29.4931 19.8937 29.2188 20.1647C28.9449 20.4396 28.6173 20.6624 28.2362 20.833C27.8551 21.0035 27.4408 21.1084 26.9933 21.1476ZM33.5901 21.7232C33.3721 21.7423 33.1806 21.7493 33.0155 21.7441C32.8503 21.739 32.6925 21.7057 32.5421 21.6444C32.1486 21.4945 31.9279 21.1452 31.8799 20.5965C31.8567 20.3319 31.8698 20.0112 31.9192 19.6344C31.9725 19.2572 32.0582 18.8478 32.1764 18.4061C32.4365 17.4344 32.7815 16.4926 33.2114 15.5805C32.8166 15.6386 32.5066 15.7265 32.2817 15.8442C32.0602 15.9577 31.9213 16.1169 31.8647 16.3218C31.8997 16.3188 31.9383 16.3566 31.9805 16.4352C32.0226 16.5139 32.0475 16.596 32.055 16.6816C32.0672 16.8217 32.0129 16.9402 31.892 17.037C31.771 17.1339 31.6152 17.1906 31.4246 17.2073C31.2105 17.226 31.0303 17.183 30.8839 17.0781C30.7294 16.9701 30.6422 16.8032 30.6225 16.5775C30.6051 16.3791 30.6489 16.1851 30.7539 15.9955C30.8585 15.8021 31.016 15.6295 31.2262 15.4778C31.44 15.3218 31.6915 15.194 31.9808 15.0941C32.2736 14.9901 32.5912 14.9231 32.9337 14.8931C33.101 14.8785 33.3102 14.872 33.5613 14.8735C34.1384 13.7604 34.7353 12.8749 35.3522 12.2171C36.0696 11.4524 36.7551 11.0415 37.4089 10.9843C37.798 10.9503 38.1181 10.9791 38.3693 11.0709L37.2652 20.0313L35.5432 20.1819L36.0802 15.7648C35.7807 15.6577 35.5015 15.5821 35.2428 15.5381C34.988 15.4937 34.7214 15.472 34.4431 15.4728C34.0771 16.489 33.7948 17.5195 33.596 18.5642C33.3898 19.6135 33.3139 20.4495 33.3684 21.0721C33.3953 21.3795 33.4692 21.5966 33.5901 21.7232ZM36.5548 11.9119C36.2248 12.129 35.8918 12.513 35.5557 13.0639C35.2271 13.6102 34.9249 14.2347 34.6491 14.9372C35.2031 14.9946 35.7016 15.0901 36.1447 15.2239L36.5548 11.9119ZM41.1037 11.4669C40.5542 11.7306 40.1436 12.1018 39.8718 12.5804C39.6035 13.0548 39.4982 13.6208 39.5557 14.2785C39.5775 14.5275 39.6221 14.7236 39.6895 14.8667C39.7095 14.916 39.7329 14.959 39.7596 14.9959C39.7776 15.0218 39.7877 15.0483 39.7901 15.0755C39.3582 15.1133 39.0355 15.0553 38.822 14.9014C38.5839 14.7341 38.4466 14.4422 38.4102 14.0258C38.3874 13.7651 38.4213 13.5033 38.512 13.2405C38.6024 12.9738 38.7404 12.7127 38.9258 12.4573C39.1007 12.2146 39.3138 11.9842 39.5653 11.7661C39.8203 11.5439 40.0991 11.3469 40.4017 11.1754C41.0371 10.8179 41.6816 10.6105 42.3354 10.5533C42.5144 10.5376 42.6746 10.5315 42.816 10.5348L43.5646 17.8803L45.44 10.3405L46.2747 10.2675L43.7327 19.4654L42.0107 19.6161L41.1037 11.4669ZM48.5088 19.2652C48.1352 19.2979 47.8034 19.2701 47.5133 19.1817C47.2236 19.0973 46.9785 18.9619 46.7779 18.7755C46.5861 18.6002 46.4344 18.3899 46.3227 18.1448C46.215 17.8994 46.1487 17.6346 46.1238 17.3505C46.0963 17.0353 46.1188 16.7099 46.1913 16.3742C46.2636 16.0345 46.3826 15.7143 46.5484 15.4136C46.7171 15.1008 46.9285 14.8275 47.1825 14.5935C47.4404 14.3592 47.7347 14.1825 48.0654 14.0633C47.8007 13.9061 47.5972 13.7083 47.4547 13.4698C47.3162 13.2309 47.2347 12.9714 47.2102 12.6913C47.1833 12.3838 47.2208 12.0728 47.3226 11.758C47.428 11.439 47.5867 11.1467 47.7988 10.8811C48.0176 10.6032 48.2802 10.3783 48.5867 10.2064C48.8968 10.0302 49.2366 9.926 49.6063 9.89365C49.8437 9.87288 50.0703 9.88639 50.2863 9.93415C50.5018 9.97803 50.691 10.0556 50.8536 10.1668C51.0244 10.2813 51.1608 10.4282 51.2627 10.6075C51.3647 10.7868 51.4262 10.997 51.4473 11.2383C51.4626 11.4134 51.4536 11.5789 51.4202 11.7348C51.3867 11.8906 51.3341 12.0285 51.2623 12.1485C51.1904 12.2685 51.1027 12.3644 50.9992 12.4362C50.8957 12.508 50.7856 12.549 50.6689 12.5592C50.4509 12.5783 50.2548 12.4876 50.0804 12.2872C50.1445 12.2581 50.2066 12.2056 50.2666 12.1298C50.3263 12.05 50.377 11.9574 50.4187 11.8518C50.4569 11.7504 50.4847 11.6421 50.5021 11.5269C50.5194 11.4116 50.5235 11.3015 50.5143 11.1964C50.4946 10.9707 50.4113 10.8035 50.2646 10.6948C50.1432 10.6074 49.9872 10.572 49.7965 10.5887C49.6253 10.6037 49.4679 10.6645 49.3243 10.7712C49.1807 10.8779 49.0616 11.0177 48.9669 11.1906C48.8719 11.3597 48.8021 11.5482 48.7576 11.756C48.7169 11.9634 48.7058 12.1722 48.7242 12.3824C48.7572 12.7598 48.879 13.0766 49.0896 13.3326C49.3185 13.6185 49.6461 13.7996 50.0724 13.876C49.6755 14.0009 49.32 14.2398 49.0058 14.5928C48.7242 14.9154 48.5083 15.2931 48.3579 15.7258C48.2115 16.1582 48.154 16.5553 48.1857 16.9172C48.2174 17.2791 48.33 17.5575 48.5234 17.7523C48.7384 17.9688 49.0386 18.0601 49.4238 18.0264C49.6145 18.0098 49.8127 17.9669 50.0184 17.898C50.2277 17.8248 50.4251 17.7291 50.6109 17.6109C51.0422 17.3418 51.3483 17.0091 51.5293 16.6129L51.8144 16.7115C51.5595 17.4279 51.1269 18.0186 50.5167 18.4837C50.2224 18.7055 49.9045 18.8823 49.5632 19.0142C49.2221 19.1499 48.8707 19.2335 48.5088 19.2652ZM55.4604 10.9225L54.3281 11.0216L54.4201 10.4606C54.8599 10.4222 55.2642 10.3378 55.6332 10.2075C56.2149 9.99972 56.7971 9.68411 57.3796 9.26064L56.259 18.3695L54.5371 18.5202L55.4604 10.9225ZM60.3851 18.0674C59.6769 18.1293 59.1229 18.0268 58.7231 17.7599C58.3272 17.4926 58.1047 17.0787 58.0557 16.5184C58.0342 16.2732 58.0515 16.0443 58.1074 15.8316C58.1633 15.6189 58.2546 15.4305 58.3814 15.2665C58.6386 14.9342 58.9968 14.748 59.456 14.7078C59.9424 14.6653 60.2442 14.8428 60.3613 15.2403C60.0339 15.3082 59.7816 15.4498 59.6044 15.6653C59.4308 15.8766 59.3574 16.1359 59.3843 16.4433C59.4088 16.7235 59.5098 16.9362 59.6871 17.0815C59.8645 17.2267 60.0953 17.2869 60.3794 17.2621C60.6089 17.242 60.8164 17.1709 61.0018 17.0488C61.1907 16.9225 61.3464 16.752 61.4688 16.5374C61.5915 16.3267 61.6781 16.0838 61.7285 15.8089C61.7829 15.5335 61.7961 15.2363 61.7682 14.9172C61.7195 14.3608 61.5674 13.9447 61.3119 13.6691C61.06 13.3892 60.7239 13.2676 60.3037 13.3044C60.0819 13.3238 59.8484 13.3893 59.6033 13.5009C59.3578 13.6087 59.0857 13.7697 58.7868 13.9841L58.6132 13.8816L59.1455 9.27671C59.9952 9.30824 60.6672 9.30238 61.1614 9.25915C61.5194 9.22782 61.8635 9.17223 62.1938 9.09236C62.5275 9.00826 62.8682 8.89024 63.2156 8.73828C63.2417 8.85755 63.2611 8.98918 63.2737 9.13316C63.3094 9.54176 63.2367 9.87554 63.0554 10.1345C62.8497 10.427 62.5055 10.5943 62.023 10.6366C61.7623 10.6594 61.4064 10.6474 60.9553 10.6006C60.8014 10.5905 60.6254 10.5726 60.4271 10.5468L60.0007 10.5135L59.7115 12.721C60.1917 12.428 60.675 12.2602 61.1614 12.2177C61.4805 12.1897 61.7754 12.2208 62.046 12.3109C62.3166 12.4009 62.5546 12.5448 62.7601 12.7424C62.9656 12.9401 63.1305 13.1884 63.2547 13.4873C63.3788 13.7862 63.4573 14.1225 63.49 14.496C63.5322 14.9786 63.4891 15.4274 63.3607 15.8425C63.2362 16.2573 63.0371 16.6257 62.7634 16.9476C62.4932 17.2653 62.1547 17.5204 61.7481 17.7128C61.3414 17.9053 60.8871 18.0234 60.3851 18.0674ZM65.4589 13.4709C64.5483 13.5506 64.0411 12.997 63.9373 11.8101C63.8978 11.3587 63.9208 10.9273 64.0064 10.516C64.0958 10.1043 64.2403 9.73872 64.4398 9.41934C64.6354 9.1003 64.8737 8.84417 65.1548 8.65097C65.4359 8.45776 65.7438 8.34652 66.0785 8.31724C67.0046 8.23622 67.5198 8.79108 67.624 9.98185C67.6628 10.4255 67.6353 10.8514 67.5417 11.2595C67.4519 11.6673 67.3074 12.0329 67.1082 12.3561C66.9091 12.6794 66.6672 12.9398 66.3825 13.1372C66.0975 13.3308 65.7897 13.442 65.4589 13.4709ZM69.8318 8.12415L70.6898 8.04908L66.5031 17.4733L65.645 17.5484L69.8318 8.12415ZM65.5853 12.9658C65.737 12.9525 65.8776 12.8559 66.0069 12.676C66.1398 12.4918 66.2498 12.247 66.3367 11.9413C66.4237 11.6357 66.4815 11.2876 66.51 10.8969C66.5382 10.5023 66.5341 10.0968 66.4977 9.68042C66.4701 9.36522 66.423 9.13996 66.3562 9.00464C66.286 8.87354 66.1847 8.81379 66.0524 8.82536C65.9006 8.83864 65.7565 8.93947 65.62 9.12786C65.4875 9.31591 65.3738 9.56309 65.2791 9.86939C65.1843 10.1757 65.1161 10.5169 65.0745 10.8931C65.0368 11.2689 65.0342 11.6416 65.0665 12.0113C65.0965 12.3537 65.1534 12.6017 65.2375 12.7551C65.3176 12.9088 65.4335 12.9791 65.5853 12.9658ZM70.2741 17.2139C69.3636 17.2936 68.8563 16.74 68.7525 15.5531C68.713 15.1017 68.7362 14.6723 68.8221 14.2648C68.9116 13.8531 69.0561 13.4876 69.2555 13.1682C69.4511 12.8491 69.6895 12.593 69.9706 12.3998C70.2517 12.2066 70.5596 12.0954 70.8942 12.0661C71.8204 11.9851 72.3354 12.538 72.4392 13.7249C72.478 14.1685 72.4506 14.5944 72.3569 15.0025C72.2671 15.4103 72.1226 15.7759 71.9235 16.0991C71.7243 16.4224 71.4824 16.6828 71.1978 16.8802C70.9128 17.0738 70.6049 17.185 70.2741 17.2139ZM70.4005 16.7088C70.5523 16.6955 70.6928 16.5989 70.8222 16.419C70.9551 16.2349 71.065 15.99 71.152 15.6843C71.239 15.3787 71.2967 15.0306 71.3253 14.6399C71.3538 14.2492 71.3499 13.8456 71.3135 13.4293C71.2859 13.1141 71.2387 12.8888 71.172 12.7535C71.1017 12.6224 71.0004 12.5626 70.8681 12.5742C70.6697 12.5916 70.4825 12.7609 70.3067 13.0821C70.1416 13.3906 70.0193 13.7856 69.9399 14.267C69.8579 14.7643 69.8385 15.2601 69.8818 15.7543C69.9117 16.0967 69.9687 16.3447 70.0527 16.4981C70.1328 16.6519 70.2488 16.7221 70.4005 16.7088Z" fill="#5860A6"/>
<path d="M20.75 24.9707C17.9167 28.6374 9.95 35.9707 0.75 35.9707M0.75 35.9707L4.75 30.4707M0.75 35.9707C2.08333 36.6374 5.65 37.8707 9.25 37.4707" stroke="#5860A6" stroke-width="1.5" stroke-linecap="round" stroke-linejoin="round"/>
<path d="M29.2499 3.47067C39.2499 1.304 62.9499 -1.52933 77.7499 4.47067C96.2499 11.9707 89.2499 26.4707 46.2499 26.9707C3.24986 27.4707 -5.75014 12.9706 33.7499 3.47067C65.3499 -4.12928 80.9166 5.97073 84.75 11.9707" stroke="#5860A6" stroke-width="1.5" stroke-linecap="round" stroke-linejoin="round"/>
</svg>
