<svg width="231" height="231" viewBox="0 0 231 231" fill="none" xmlns="http://www.w3.org/2000/svg">
<path d="M51.2229 114.605C51.2229 84.927 75.2818 60.8682 104.96 60.8682C134.638 60.8682 158.697 84.927 158.697 114.605C158.697 115.434 159.368 116.105 160.197 116.105C161.025 116.105 161.697 115.434 161.697 114.605C161.697 83.2702 136.295 57.8682 104.96 57.8682C73.6249 57.8682 48.2229 83.2702 48.2229 114.605C48.2229 118.457 48.6071 122.222 49.3396 125.861C49.5031 126.673 50.294 127.199 51.1061 127.035C51.9183 126.872 52.4441 126.081 52.2806 125.269C51.5871 121.823 51.2229 118.258 51.2229 114.605Z" fill="url(#paint0_linear_11_1244)"/>
<path fill-rule="evenodd" clip-rule="evenodd" d="M111.535 40.333C69.3053 40.333 35.071 74.5673 35.071 116.797C35.071 159.028 69.3053 193.262 111.535 193.262C153.766 193.262 188 159.028 188 116.797C188 74.5673 153.766 40.333 111.535 40.333ZM38.071 116.797C38.071 76.2242 70.9622 43.333 111.535 43.333C152.109 43.333 185 76.2242 185 116.797C185 157.371 152.109 190.262 111.535 190.262C70.9622 190.262 38.071 157.371 38.071 116.797Z" fill="url(#paint1_linear_11_1244)"/>
<path fill-rule="evenodd" clip-rule="evenodd" d="M19.2893 116.359C19.2893 65.1705 60.7857 23.6741 111.974 23.6741C163.163 23.6741 204.659 65.1705 204.659 116.359C204.659 167.547 163.163 209.044 111.974 209.044C60.7857 209.044 19.2893 167.547 19.2893 116.359ZM111.974 26.6741C62.4426 26.6741 22.2893 66.8273 22.2893 116.359C22.2893 165.89 62.4426 206.044 111.974 206.044C161.506 206.044 201.659 165.89 201.659 116.359C201.659 66.8273 161.506 26.6741 111.974 26.6741Z" fill="url(#paint2_linear_11_1244)"/>
<path fill-rule="evenodd" clip-rule="evenodd" d="M115.481 0C51.7026 0 0 51.7026 0 115.481C0 179.259 51.7026 230.962 115.481 230.962C179.259 230.962 230.962 179.259 230.962 115.481C230.962 51.7026 179.259 0 115.481 0ZM3 115.481C3 53.3595 53.3595 3 115.481 3C177.603 3 227.962 53.3595 227.962 115.481C227.962 177.603 177.603 227.962 115.481 227.962C53.3595 227.962 3 177.603 3 115.481Z" fill="url(#paint3_linear_11_1244)"/>
<defs>
<linearGradient id="paint0_linear_11_1244" x1="115.481" y1="0" x2="115.481" y2="230.962" gradientUnits="userSpaceOnUse">
<stop stop-color="#FF9771" stop-opacity="0.84"/>
<stop offset="0.954425" stop-color="#FF9771" stop-opacity="0"/>
</linearGradient>
<linearGradient id="paint1_linear_11_1244" x1="115.481" y1="0" x2="115.481" y2="230.962" gradientUnits="userSpaceOnUse">
<stop stop-color="#FF9771" stop-opacity="0.84"/>
<stop offset="0.954425" stop-color="#FF9771" stop-opacity="0"/>
</linearGradient>
<linearGradient id="paint2_linear_11_1244" x1="115.481" y1="0" x2="115.481" y2="230.962" gradientUnits="userSpaceOnUse">
<stop stop-color="#FF9771" stop-opacity="0.84"/>
<stop offset="0.954425" stop-color="#FF9771" stop-opacity="0"/>
</linearGradient>
<linearGradient id="paint3_linear_11_1244" x1="115.481" y1="0" x2="115.481" y2="230.962" gradientUnits="userSpaceOnUse">
<stop stop-color="#FF9771" stop-opacity="0.84"/>
<stop offset="0.954425" stop-color="#FF9771" stop-opacity="0"/>
</linearGradient>
</defs>
</svg>
