<svg width="51" height="101" viewBox="0 0 51 101" fill="none" xmlns="http://www.w3.org/2000/svg">
<path d="M29.3031 1.5C29.3031 0.671573 28.6315 0 27.8031 0C26.9747 0 26.3031 0.671573 26.3031 1.5L26.3031 28.3104C26.3031 29.1389 26.9747 29.8104 27.8031 29.8104C28.6315 29.8104 29.3031 29.1389 29.3031 28.3104L29.3031 1.5Z" fill="url(#paint0_linear_11_1245)"/>
<path d="M50.3461 1.5C50.3461 0.671573 49.6745 0 48.8461 0C48.0176 0 47.3461 0.671573 47.3461 1.5L47.3461 99.3294C47.3461 100.158 48.0176 100.829 48.8461 100.829C49.6745 100.829 50.3461 100.158 50.3461 99.3294L50.3461 1.5Z" fill="url(#paint1_linear_11_1245)"/>
<path d="M27.8031 71.0195C28.6315 71.0195 29.3031 71.6911 29.3031 72.5195L29.3031 99.33C29.3031 100.158 28.6315 100.83 27.8031 100.83C26.9747 100.83 26.3031 100.158 26.3031 99.33L26.3031 72.5195C26.3031 71.6911 26.9747 71.0195 27.8031 71.0195Z" fill="url(#paint2_linear_11_1245)"/>
<path d="M28.3104 66.1279C29.1389 66.1279 29.8104 65.4564 29.8104 64.6279C29.8104 63.7995 29.1389 63.1279 28.3104 63.1279L1.5 63.1279C0.671574 63.1279 0 63.7995 0 64.6279C0 65.4564 0.671573 66.1279 1.5 66.1279H28.3104Z" fill="url(#paint3_linear_11_1245)"/>
<path d="M41.8319 0C42.6603 0 43.3319 0.671573 43.3319 1.5L43.3319 99.3294C43.3319 100.158 42.6603 100.829 41.8319 100.829C41.0035 100.829 40.3319 100.158 40.3319 99.3294L40.3319 1.5C40.3319 0.671573 41.0035 0 41.8319 0Z" fill="url(#paint4_linear_11_1245)"/>
<path d="M22.2894 1.5C22.2894 0.671573 21.6179 0 20.7894 0C19.961 0 19.2894 0.671573 19.2894 1.5L19.2894 28.3104C19.2894 29.1389 19.961 29.8104 20.7894 29.8104C21.6179 29.8104 22.2894 29.1389 22.2894 28.3104L22.2894 1.5Z" fill="url(#paint5_linear_11_1245)"/>
<path d="M20.7894 71.0195C21.6179 71.0195 22.2894 71.6911 22.2894 72.5195L22.2894 99.33C22.2894 100.158 21.6179 100.83 20.7894 100.83C19.961 100.83 19.2894 100.158 19.2894 99.33L19.2894 72.5195C19.2894 71.6911 19.961 71.0195 20.7894 71.0195Z" fill="url(#paint6_linear_11_1245)"/>
<path d="M28.3104 59.1133C29.1389 59.1133 29.8104 58.4417 29.8104 57.6133C29.8104 56.7849 29.1389 56.1133 28.3104 56.1133L1.5 56.1133C0.671574 56.1133 0 56.7849 0 57.6133C0 58.4417 0.671573 59.1133 1.5 59.1133L28.3104 59.1133Z" fill="url(#paint7_linear_11_1245)"/>
<path d="M29.8104 43.5859C29.8104 44.4144 29.1389 45.0859 28.3104 45.0859L1.5 45.0859C0.671573 45.0859 0 44.4144 0 43.5859C0 42.7575 0.671574 42.0859 1.5 42.0859L28.3104 42.0859C29.1389 42.0859 29.8104 42.7575 29.8104 43.5859Z" fill="url(#paint8_linear_11_1245)"/>
<path d="M36.3178 1.5C36.3178 0.671573 35.6462 0 34.8178 0C33.9893 0 33.3178 0.671573 33.3178 1.5L33.3177 99.3294C33.3177 100.158 33.9893 100.829 34.8177 100.829C35.6462 100.829 36.3177 100.158 36.3177 99.3294L36.3178 1.5Z" fill="url(#paint9_linear_11_1245)"/>
<path d="M13.7748 0C14.6032 0 15.2748 0.671573 15.2748 1.5L15.2748 28.3104C15.2748 29.1389 14.6032 29.8104 13.7748 29.8104C12.9464 29.8104 12.2748 29.1389 12.2748 28.3104L12.2748 1.5C12.2748 0.671573 12.9464 0 13.7748 0Z" fill="url(#paint10_linear_11_1245)"/>
<path d="M15.2748 72.5195C15.2748 71.6911 14.6032 71.0195 13.7748 71.0195C12.9464 71.0195 12.2748 71.6911 12.2748 72.5195L12.2748 99.33C12.2748 100.158 12.9464 100.83 13.7748 100.83C14.6032 100.83 15.2748 100.158 15.2748 99.33L15.2748 72.5195Z" fill="url(#paint11_linear_11_1245)"/>
<path d="M29.8104 50.5996C29.8104 51.428 29.1389 52.0996 28.3104 52.0996L1.5 52.0996C0.671573 52.0996 0 51.428 0 50.5996C0 49.7712 0.671574 49.0996 1.5 49.0996L28.3104 49.0996C29.1389 49.0996 29.8104 49.7712 29.8104 50.5996Z" fill="url(#paint12_linear_11_1245)"/>
<path d="M28.3104 38.0713C29.1389 38.0713 29.8104 37.3997 29.8104 36.5713C29.8104 35.7429 29.1389 35.0713 28.3104 35.0713L1.5 35.0713C0.671574 35.0713 0 35.7429 0 36.5713C0 37.3997 0.671573 38.0713 1.5 38.0713L28.3104 38.0713Z" fill="url(#paint13_linear_11_1245)"/>
<defs>
<linearGradient id="paint0_linear_11_1245" x1="46.3511" y1="25.3418" x2="24.8511" y2="86.3418" gradientUnits="userSpaceOnUse">
<stop stop-color="#FFD7CB"/>
<stop offset="1" stop-color="#FFD7CB" stop-opacity="0"/>
</linearGradient>
<linearGradient id="paint1_linear_11_1245" x1="46.3511" y1="25.3418" x2="24.8511" y2="86.3418" gradientUnits="userSpaceOnUse">
<stop stop-color="#FFD7CB"/>
<stop offset="1" stop-color="#FFD7CB" stop-opacity="0"/>
</linearGradient>
<linearGradient id="paint2_linear_11_1245" x1="46.3511" y1="25.3418" x2="24.8511" y2="86.3418" gradientUnits="userSpaceOnUse">
<stop stop-color="#FFD7CB"/>
<stop offset="1" stop-color="#FFD7CB" stop-opacity="0"/>
</linearGradient>
<linearGradient id="paint3_linear_11_1245" x1="46.3511" y1="25.3418" x2="24.8511" y2="86.3418" gradientUnits="userSpaceOnUse">
<stop stop-color="#FFD7CB"/>
<stop offset="1" stop-color="#FFD7CB" stop-opacity="0"/>
</linearGradient>
<linearGradient id="paint4_linear_11_1245" x1="46.3511" y1="25.3418" x2="24.8511" y2="86.3418" gradientUnits="userSpaceOnUse">
<stop stop-color="#FFD7CB"/>
<stop offset="1" stop-color="#FFD7CB" stop-opacity="0"/>
</linearGradient>
<linearGradient id="paint5_linear_11_1245" x1="46.3511" y1="25.3418" x2="24.8511" y2="86.3418" gradientUnits="userSpaceOnUse">
<stop stop-color="#FFD7CB"/>
<stop offset="1" stop-color="#FFD7CB" stop-opacity="0"/>
</linearGradient>
<linearGradient id="paint6_linear_11_1245" x1="46.3511" y1="25.3418" x2="24.8511" y2="86.3418" gradientUnits="userSpaceOnUse">
<stop stop-color="#FFD7CB"/>
<stop offset="1" stop-color="#FFD7CB" stop-opacity="0"/>
</linearGradient>
<linearGradient id="paint7_linear_11_1245" x1="46.3511" y1="25.3418" x2="24.8511" y2="86.3418" gradientUnits="userSpaceOnUse">
<stop stop-color="#FFD7CB"/>
<stop offset="1" stop-color="#FFD7CB" stop-opacity="0"/>
</linearGradient>
<linearGradient id="paint8_linear_11_1245" x1="46.3511" y1="25.3418" x2="24.8511" y2="86.3418" gradientUnits="userSpaceOnUse">
<stop stop-color="#FFD7CB"/>
<stop offset="1" stop-color="#FFD7CB" stop-opacity="0"/>
</linearGradient>
<linearGradient id="paint9_linear_11_1245" x1="46.3511" y1="25.3418" x2="24.8511" y2="86.3418" gradientUnits="userSpaceOnUse">
<stop stop-color="#FFD7CB"/>
<stop offset="1" stop-color="#FFD7CB" stop-opacity="0"/>
</linearGradient>
<linearGradient id="paint10_linear_11_1245" x1="46.3511" y1="25.3418" x2="24.8511" y2="86.3418" gradientUnits="userSpaceOnUse">
<stop stop-color="#FFD7CB"/>
<stop offset="1" stop-color="#FFD7CB" stop-opacity="0"/>
</linearGradient>
<linearGradient id="paint11_linear_11_1245" x1="46.3511" y1="25.3418" x2="24.8511" y2="86.3418" gradientUnits="userSpaceOnUse">
<stop stop-color="#FFD7CB"/>
<stop offset="1" stop-color="#FFD7CB" stop-opacity="0"/>
</linearGradient>
<linearGradient id="paint12_linear_11_1245" x1="46.3511" y1="25.3418" x2="24.8511" y2="86.3418" gradientUnits="userSpaceOnUse">
<stop stop-color="#FFD7CB"/>
<stop offset="1" stop-color="#FFD7CB" stop-opacity="0"/>
</linearGradient>
<linearGradient id="paint13_linear_11_1245" x1="46.3511" y1="25.3418" x2="24.8511" y2="86.3418" gradientUnits="userSpaceOnUse">
<stop stop-color="#FFD7CB"/>
<stop offset="1" stop-color="#FFD7CB" stop-opacity="0"/>
</linearGradient>
</defs>
</svg>
