<svg width="24" height="20" viewBox="0 0 24 20" fill="none" xmlns="http://www.w3.org/2000/svg">
<path d="M14.6516 0H9.34833C8.68158 0 8.14111 0.540503 8.14111 1.20722V2.77662H9.34833V1.4487C9.34833 1.31534 9.45641 1.20725 9.58977 1.20725H14.4101C14.5435 1.20725 14.6516 1.31534 14.6516 1.4487V2.77665H15.8588V1.20722C15.8588 0.540503 15.3183 0 14.6516 0Z" fill="url(#paint0_linear_11_1119)"/>
<path d="M2.60376 11.9925L4.20183 19.0595C4.32624 19.6098 4.81519 20.0005 5.37932 20.0005H18.6208C19.1849 20.0005 19.6738 19.6098 19.7983 19.0595L21.3963 11.9925V10.1817L19.8106 3.69777C19.6785 3.15742 19.1942 2.77734 18.6379 2.77734H5.37932C4.81519 2.77734 4.32624 3.16804 4.20183 3.71831L2.60376 10.7853V11.9925Z" fill="url(#paint1_linear_11_1119)"/>
<path d="M19.8104 3.69777C19.6782 3.15742 19.194 2.77734 18.6377 2.77734H18.475C18.5313 2.87469 18.5754 2.98062 18.6032 3.09418L19.7587 7.8191C20.0445 8.98752 20.4443 10.2135 20.1889 11.3889C19.1727 16.0655 15.0298 19.4048 10.2427 19.4013C8.27295 19.3998 6.30324 19.3984 4.3335 19.3969C4.54471 19.7627 4.939 20.0005 5.37911 20.0005H18.6206C19.1847 20.0005 19.6736 19.6098 19.798 19.0595L21.3961 11.9925V10.1817L19.8104 3.69777Z" fill="url(#paint2_linear_11_1119)"/>
<path d="M11.9999 8.39724C11.6665 8.39724 11.3962 8.12697 11.3962 7.79361V5.76769C11.3962 5.43433 11.6665 5.16406 11.9999 5.16406C12.3332 5.16406 12.6035 5.43433 12.6035 5.76769V7.79361C12.6035 8.12697 12.3332 8.39724 11.9999 8.39724Z" fill="#FFF9E2"/>
<path d="M16.225 8.39754C15.9649 8.39754 15.7248 8.22813 15.6467 7.96614L15.0431 5.94022C14.9479 5.62073 15.1298 5.28456 15.4492 5.18937C15.7688 5.09413 16.1049 5.27601 16.2001 5.5955L16.8037 7.62142C16.8989 7.94091 16.7171 8.27707 16.3976 8.37227C16.3401 8.38938 16.282 8.39754 16.225 8.39754Z" fill="#FFF9E2"/>
<path d="M7.77493 8.39754C7.71786 8.39754 7.65986 8.38938 7.60232 8.37227C7.28283 8.27707 7.10099 7.94091 7.19619 7.62142L7.79982 5.5955C7.89501 5.27601 8.23114 5.09413 8.55067 5.18937C8.87016 5.28456 9.05199 5.62073 8.9568 5.94022L8.35317 7.9661C8.27512 8.22809 8.03501 8.39754 7.77493 8.39754Z" fill="#FFF9E2"/>
<path d="M11.9999 17.3103C11.6665 17.3103 11.3962 17.0401 11.3962 16.7067V14.6808C11.3962 14.3474 11.6665 14.0771 11.9999 14.0771C12.3332 14.0771 12.6035 14.3474 12.6035 14.6808V16.7067C12.6035 17.0401 12.3332 17.3103 11.9999 17.3103Z" fill="#FFF9E2"/>
<path d="M15.6218 17.3106C15.5647 17.3106 15.5067 17.3024 15.4492 17.2853C15.1298 17.1901 14.9479 16.8539 15.0431 16.5345L15.6467 14.5085C15.742 14.1891 16.078 14.0073 16.3976 14.1024C16.7171 14.1976 16.8989 14.5338 16.8037 14.8533L16.2001 16.8792C16.122 17.1412 15.8819 17.3106 15.6218 17.3106Z" fill="#FFF9E2"/>
<path d="M8.37805 17.3116C8.11798 17.3116 7.87786 17.1422 7.79982 16.8802L7.19619 14.8543C7.10099 14.5348 7.28283 14.1987 7.60232 14.1035C7.92185 14.0081 8.25794 14.1901 8.35317 14.5096L8.9568 16.5355C9.05199 16.855 8.87016 17.1912 8.55067 17.2864C8.49313 17.3035 8.43508 17.3116 8.37805 17.3116Z" fill="#FFF9E2"/>
<g filter="url(#filter0_d_11_1119)">
<path d="M21.5974 11.9915H2.40242C2.18015 11.9915 2 11.8114 2 11.5891V10.5831C2 10.3608 2.18015 10.1807 2.40242 10.1807H21.5974C21.8197 10.1807 21.9998 10.3608 21.9998 10.5831V11.5891C21.9998 11.8114 21.8197 11.9915 21.5974 11.9915Z" fill="white"/>
</g>
<g filter="url(#filter1_d_11_1119)">
<path d="M13.7515 12.4481H10.2484C10.0261 12.4481 9.84595 12.268 9.84595 12.0457V10.128C9.84595 9.90574 10.0261 9.72559 10.2484 9.72559H13.7515C13.9738 9.72559 14.1539 9.90574 14.1539 10.128V12.0457C14.1539 12.268 13.9737 12.4481 13.7515 12.4481Z" fill="#FFE5AC"/>
</g>
<path d="M13.7515 9.72559H12.9467C12.9467 10.8958 11.998 11.8445 10.8278 11.8445H9.84595V12.0457C9.84595 12.2679 10.0261 12.4481 10.2484 12.4481H13.7515C13.9738 12.4481 14.1539 12.2679 14.1539 12.0457V10.128C14.1539 9.90578 13.9738 9.72559 13.7515 9.72559Z" fill="#FFF6E1"/>
<defs>
<filter id="filter0_d_11_1119" x="0" y="9.18066" width="23.9998" height="5.81055" filterUnits="userSpaceOnUse" color-interpolation-filters="sRGB">
<feFlood flood-opacity="0" result="BackgroundImageFix"/>
<feColorMatrix in="SourceAlpha" type="matrix" values="0 0 0 0 0 0 0 0 0 0 0 0 0 0 0 0 0 0 127 0" result="hardAlpha"/>
<feOffset dy="1"/>
<feGaussianBlur stdDeviation="1"/>
<feComposite in2="hardAlpha" operator="out"/>
<feColorMatrix type="matrix" values="0 0 0 0 0.846777 0 0 0 0 0.584621 0 0 0 0 0.00971645 0 0 0 0.17 0"/>
<feBlend mode="normal" in2="BackgroundImageFix" result="effect1_dropShadow_11_1119"/>
<feBlend mode="normal" in="SourceGraphic" in2="effect1_dropShadow_11_1119" result="shape"/>
</filter>
<filter id="filter1_d_11_1119" x="4.84595" y="5.72559" width="14.3079" height="12.7227" filterUnits="userSpaceOnUse" color-interpolation-filters="sRGB">
<feFlood flood-opacity="0" result="BackgroundImageFix"/>
<feColorMatrix in="SourceAlpha" type="matrix" values="0 0 0 0 0 0 0 0 0 0 0 0 0 0 0 0 0 0 127 0" result="hardAlpha"/>
<feOffset dy="1"/>
<feGaussianBlur stdDeviation="2.5"/>
<feComposite in2="hardAlpha" operator="out"/>
<feColorMatrix type="matrix" values="0 0 0 0 0.737533 0 0 0 0 0.534613 0 0 0 0 0.0852892 0 0 0 1 0"/>
<feBlend mode="normal" in2="BackgroundImageFix" result="effect1_dropShadow_11_1119"/>
<feBlend mode="normal" in="SourceGraphic" in2="effect1_dropShadow_11_1119" result="shape"/>
</filter>
<linearGradient id="paint0_linear_11_1119" x1="11.9999" y1="0" x2="11.9999" y2="2.77665" gradientUnits="userSpaceOnUse">
<stop stop-color="#FFD986"/>
<stop offset="1" stop-color="#FABF3E"/>
</linearGradient>
<linearGradient id="paint1_linear_11_1119" x1="12" y1="2.77734" x2="12" y2="20.0005" gradientUnits="userSpaceOnUse">
<stop stop-color="#FFD986"/>
<stop offset="1" stop-color="#FABF3E"/>
</linearGradient>
<linearGradient id="paint2_linear_11_1119" x1="20.4258" y1="4.5" x2="12.8648" y2="20.0005" gradientUnits="userSpaceOnUse">
<stop stop-color="#FFD984"/>
<stop offset="1" stop-color="#F5B42A"/>
</linearGradient>
</defs>
</svg>
